<svg class="rich-terminal" viewBox="0 0 1238 977.1999999999999" xmlns="http://www.w3.org/2000/svg">
    <!-- Generated with Rich https://www.textualize.io -->
    <style>

    @font-face {
        font-family: "Fira Code";
        src: local("FiraCode-Regular"),
                url("https://cdnjs.cloudflare.com/ajax/libs/firacode/6.2.0/woff2/FiraCode-Regular.woff2") format("woff2"),
                url("https://cdnjs.cloudflare.com/ajax/libs/firacode/6.2.0/woff/FiraCode-Regular.woff") format("woff");
        font-style: normal;
        font-weight: 400;
    }
    @font-face {
        font-family: "Fira Code";
        src: local("FiraCode-Bold"),
                url("https://cdnjs.cloudflare.com/ajax/libs/firacode/6.2.0/woff2/FiraCode-Bold.woff2") format("woff2"),
                url("https://cdnjs.cloudflare.com/ajax/libs/firacode/6.2.0/woff/FiraCode-Bold.woff") format("woff");
        font-style: bold;
        font-weight: 700;
    }

    .terminal-2024413555-matrix {
        font-family: Fira Code, monospace;
        font-size: 20px;
        line-height: 24.4px;
        font-variant-east-asian: full-width;
    }

    .terminal-2024413555-title {
        font-size: 18px;
        font-weight: bold;
        font-family: arial;
    }

    .terminal-2024413555-r1 { fill: #c5c8c6 }
.terminal-2024413555-r2 { fill: #a2a2a2 }
.terminal-2024413555-r3 { fill: #737373 }
.terminal-2024413555-r4 { fill: #dddddd }
.terminal-2024413555-r5 { fill: #ffffff;font-weight: bold }
.terminal-2024413555-r6 { fill: #9e9e9e }
.terminal-2024413555-r7 { fill: #252525 }
.terminal-2024413555-r8 { fill: #7b7b7b }
.terminal-2024413555-r9 { fill: #a2a2a2;font-weight: bold }
.terminal-2024413555-r10 { fill: #ffffff }
.terminal-2024413555-r11 { fill: #5d5d5d }
.terminal-2024413555-r12 { fill: #5d5d5d;font-weight: bold }
.terminal-2024413555-r13 { fill: #7b7b7b;font-weight: bold }
.terminal-2024413555-r14 { fill: #0d0d0d }
.terminal-2024413555-r15 { fill: #464646 }
    </style>

    <defs>
    <clipPath id="terminal-2024413555-clip-terminal">
      <rect x="0" y="0" width="1219.0" height="926.1999999999999" />
    </clipPath>
    <clipPath id="terminal-2024413555-line-0">
    <rect x="0" y="1.5" width="1220" height="24.65"/>
            </clipPath>
<clipPath id="terminal-2024413555-line-1">
    <rect x="0" y="25.9" width="1220" height="24.65"/>
            </clipPath>
<clipPath id="terminal-2024413555-line-2">
    <rect x="0" y="50.3" width="1220" height="24.65"/>
            </clipPath>
<clipPath id="terminal-2024413555-line-3">
    <rect x="0" y="74.7" width="1220" height="24.65"/>
            </clipPath>
<clipPath id="terminal-2024413555-line-4">
    <rect x="0" y="99.1" width="1220" height="24.65"/>
            </clipPath>
<clipPath id="terminal-2024413555-line-5">
    <rect x="0" y="123.5" width="1220" height="24.65"/>
            </clipPath>
<clipPath id="terminal-2024413555-line-6">
    <rect x="0" y="147.9" width="1220" height="24.65"/>
            </clipPath>
<clipPath id="terminal-2024413555-line-7">
    <rect x="0" y="172.3" width="1220" height="24.65"/>
            </clipPath>
<clipPath id="terminal-2024413555-line-8">
    <rect x="0" y="196.7" width="1220" height="24.65"/>
            </clipPath>
<clipPath id="terminal-2024413555-line-9">
    <rect x="0" y="221.1" width="1220" height="24.65"/>
            </clipPath>
<clipPath id="terminal-2024413555-line-10">
    <rect x="0" y="245.5" width="1220" height="24.65"/>
            </clipPath>
<clipPath id="terminal-2024413555-line-11">
    <rect x="0" y="269.9" width="1220" height="24.65"/>
            </clipPath>
<clipPath id="terminal-2024413555-line-12">
    <rect x="0" y="294.3" width="1220" height="24.65"/>
            </clipPath>
<clipPath id="terminal-2024413555-line-13">
    <rect x="0" y="318.7" width="1220" height="24.65"/>
            </clipPath>
<clipPath id="terminal-2024413555-line-14">
    <rect x="0" y="343.1" width="1220" height="24.65"/>
            </clipPath>
<clipPath id="terminal-2024413555-line-15">
    <rect x="0" y="367.5" width="1220" height="24.65"/>
            </clipPath>
<clipPath id="terminal-2024413555-line-16">
    <rect x="0" y="391.9" width="1220" height="24.65"/>
            </clipPath>
<clipPath id="terminal-2024413555-line-17">
    <rect x="0" y="416.3" width="1220" height="24.65"/>
            </clipPath>
<clipPath id="terminal-2024413555-line-18">
    <rect x="0" y="440.7" width="1220" height="24.65"/>
            </clipPath>
<clipPath id="terminal-2024413555-line-19">
    <rect x="0" y="465.1" width="1220" height="24.65"/>
            </clipPath>
<clipPath id="terminal-2024413555-line-20">
    <rect x="0" y="489.5" width="1220" height="24.65"/>
            </clipPath>
<clipPath id="terminal-2024413555-line-21">
    <rect x="0" y="513.9" width="1220" height="24.65"/>
            </clipPath>
<clipPath id="terminal-2024413555-line-22">
    <rect x="0" y="538.3" width="1220" height="24.65"/>
            </clipPath>
<clipPath id="terminal-2024413555-line-23">
    <rect x="0" y="562.7" width="1220" height="24.65"/>
            </clipPath>
<clipPath id="terminal-2024413555-line-24">
    <rect x="0" y="587.1" width="1220" height="24.65"/>
            </clipPath>
<clipPath id="terminal-2024413555-line-25">
    <rect x="0" y="611.5" width="1220" height="24.65"/>
            </clipPath>
<clipPath id="terminal-2024413555-line-26">
    <rect x="0" y="635.9" width="1220" height="24.65"/>
            </clipPath>
<clipPath id="terminal-2024413555-line-27">
    <rect x="0" y="660.3" width="1220" height="24.65"/>
            </clipPath>
<clipPath id="terminal-2024413555-line-28">
    <rect x="0" y="684.7" width="1220" height="24.65"/>
            </clipPath>
<clipPath id="terminal-2024413555-line-29">
    <rect x="0" y="709.1" width="1220" height="24.65"/>
            </clipPath>
<clipPath id="terminal-2024413555-line-30">
    <rect x="0" y="733.5" width="1220" height="24.65"/>
            </clipPath>
<clipPath id="terminal-2024413555-line-31">
    <rect x="0" y="757.9" width="1220" height="24.65"/>
            </clipPath>
<clipPath id="terminal-2024413555-line-32">
    <rect x="0" y="782.3" width="1220" height="24.65"/>
            </clipPath>
<clipPath id="terminal-2024413555-line-33">
    <rect x="0" y="806.7" width="1220" height="24.65"/>
            </clipPath>
<clipPath id="terminal-2024413555-line-34">
    <rect x="0" y="831.1" width="1220" height="24.65"/>
            </clipPath>
<clipPath id="terminal-2024413555-line-35">
    <rect x="0" y="855.5" width="1220" height="24.65"/>
            </clipPath>
<clipPath id="terminal-2024413555-line-36">
    <rect x="0" y="879.9" width="1220" height="24.65"/>
            </clipPath>
    </defs>

    <rect fill="#292929" stroke="rgba(255,255,255,0.35)" stroke-width="1" x="1" y="1" width="1236" height="975.2" rx="8"/><text class="terminal-2024413555-title" fill="#c5c8c6" text-anchor="middle" x="618" y="27">TeamAgents</text>
            <g transform="translate(26,22)">
            <circle cx="0" cy="0" r="7" fill="#ff5f57"/>
            <circle cx="22" cy="0" r="7" fill="#febc2e"/>
            <circle cx="44" cy="0" r="7" fill="#28c840"/>
            </g>
        
    <g transform="translate(9, 41)" clip-path="url(#terminal-2024413555-clip-terminal)">
    <rect fill="#181818" x="0" y="1.5" width="12.2" height="24.65" shape-rendering="crispEdges"/><rect fill="#181818" x="12.2" y="1.5" width="12.2" height="24.65" shape-rendering="crispEdges"/><rect fill="#181818" x="24.4" y="1.5" width="61" height="24.65" shape-rendering="crispEdges"/><rect fill="#181818" x="85.4" y="1.5" width="12.2" height="24.65" shape-rendering="crispEdges"/><rect fill="#181818" x="97.6" y="1.5" width="402.6" height="24.65" shape-rendering="crispEdges"/><rect fill="#181818" x="500.2" y="1.5" width="122" height="24.65" shape-rendering="crispEdges"/><rect fill="#181818" x="622.2" y="1.5" width="36.6" height="24.65" shape-rendering="crispEdges"/><rect fill="#181818" x="658.8" y="1.5" width="24.4" height="24.65" shape-rendering="crispEdges"/><rect fill="#181818" x="683.2" y="1.5" width="414.8" height="24.65" shape-rendering="crispEdges"/><rect fill="#222222" x="1098" y="1.5" width="12.2" height="24.65" shape-rendering="crispEdges"/><rect fill="#222222" x="1110.2" y="1.5" width="97.6" height="24.65" shape-rendering="crispEdges"/><rect fill="#222222" x="1207.8" y="1.5" width="12.2" height="24.65" shape-rendering="crispEdges"/><rect fill="#181818" x="0" y="25.9" width="12.2" height="24.65" shape-rendering="crispEdges"/><rect fill="#181818" x="12.2" y="25.9" width="1183.4" height="24.65" shape-rendering="crispEdges"/><rect fill="#181818" x="1195.6" y="25.9" width="12.2" height="24.65" shape-rendering="crispEdges"/><rect fill="#181818" x="1207.8" y="25.9" width="12.2" height="24.65" shape-rendering="crispEdges"/><rect fill="#0d0d0d" x="0" y="50.3" width="12.2" height="24.65" shape-rendering="crispEdges"/><rect fill="#0d0d0d" x="12.2" y="50.3" width="12.2" height="24.65" shape-rendering="crispEdges"/><rect fill="#0d0d0d" x="24.4" y="50.3" width="48.8" height="24.65" shape-rendering="crispEdges"/><rect fill="#0d0d0d" x="73.2" y="50.3" width="12.2" height="24.65" shape-rendering="crispEdges"/><rect fill="#0d0d0d" x="85.4" y="50.3" width="12.2" height="24.65" shape-rendering="crispEdges"/><rect fill="#0d0d0d" x="97.6" y="50.3" width="48.8" height="24.65" shape-rendering="crispEdges"/><rect fill="#0d0d0d" x="146.4" y="50.3" width="12.2" height="24.65" shape-rendering="crispEdges"/><rect fill="#0d0d0d" x="158.6" y="50.3" width="12.2" height="24.65" shape-rendering="crispEdges"/><rect fill="#0d0d0d" x="170.8" y="50.3" width="97.6" height="24.65" shape-rendering="crispEdges"/><rect fill="#0d0d0d" x="268.4" y="50.3" width="12.2" height="24.65" shape-rendering="crispEdges"/><rect fill="#0d0d0d" x="280.6" y="50.3" width="12.2" height="24.65" shape-rendering="crispEdges"/><rect fill="#0d0d0d" x="292.8" y="50.3" width="48.8" height="24.65" shape-rendering="crispEdges"/><rect fill="#0d0d0d" x="341.6" y="50.3" width="12.2" height="24.65" shape-rendering="crispEdges"/><rect fill="#0d0d0d" x="353.8" y="50.3" width="12.2" height="24.65" shape-rendering="crispEdges"/><rect fill="#0d0d0d" x="366" y="50.3" width="48.8" height="24.65" shape-rendering="crispEdges"/><rect fill="#0d0d0d" x="414.8" y="50.3" width="12.2" height="24.65" shape-rendering="crispEdges"/><rect fill="#0d0d0d" x="427" y="50.3" width="12.2" height="24.65" shape-rendering="crispEdges"/><rect fill="#0d0d0d" x="439.2" y="50.3" width="48.8" height="24.65" shape-rendering="crispEdges"/><rect fill="#0d0d0d" x="488" y="50.3" width="12.2" height="24.65" shape-rendering="crispEdges"/><rect fill="#0d0d0d" x="500.2" y="50.3" width="12.2" height="24.65" shape-rendering="crispEdges"/><rect fill="#0d0d0d" x="512.4" y="50.3" width="48.8" height="24.65" shape-rendering="crispEdges"/><rect fill="#0d0d0d" x="561.2" y="50.3" width="12.2" height="24.65" shape-rendering="crispEdges"/><rect fill="#0d0d0d" x="573.4" y="50.3" width="634.4" height="24.65" shape-rendering="crispEdges"/><rect fill="#0d0d0d" x="1207.8" y="50.3" width="12.2" height="24.65" shape-rendering="crispEdges"/><rect fill="#0d0d0d" x="0" y="74.7" width="12.2" height="24.65" shape-rendering="crispEdges"/><rect fill="#0d0d0d" x="12.2" y="74.7" width="12.2" height="24.65" shape-rendering="crispEdges"/><rect fill="#0d0d0d" x="24.4" y="74.7" width="48.8" height="24.65" shape-rendering="crispEdges"/><rect fill="#0d0d0d" x="73.2" y="74.7" width="12.2" height="24.65" shape-rendering="crispEdges"/><rect fill="#0d0d0d" x="85.4" y="74.7" width="1122.4" height="24.65" shape-rendering="crispEdges"/><rect fill="#0d0d0d" x="1207.8" y="74.7" width="12.2" height="24.65" shape-rendering="crispEdges"/><rect fill="#0d0d0d" x="0" y="99.1" width="12.2" height="24.65" shape-rendering="crispEdges"/><rect fill="#181818" x="12.2" y="99.1" width="146.4" height="24.65" shape-rendering="crispEdges"/><rect fill="#181818" x="158.6" y="99.1" width="97.6" height="24.65" shape-rendering="crispEdges"/><rect fill="#181818" x="256.2" y="99.1" width="146.4" height="24.65" shape-rendering="crispEdges"/><rect fill="#181818" x="402.6" y="99.1" width="73.2" height="24.65" shape-rendering="crispEdges"/><rect fill="#181818" x="475.8" y="99.1" width="73.2" height="24.65" shape-rendering="crispEdges"/><rect fill="#181818" x="549" y="99.1" width="122" height="24.65" shape-rendering="crispEdges"/><rect fill="#181818" x="671" y="99.1" width="366" height="24.65" shape-rendering="crispEdges"/><rect fill="#151515" x="1037" y="99.1" width="170.8" height="24.65" shape-rendering="crispEdges"/><rect fill="#0d0d0d" x="1207.8" y="99.1" width="12.2" height="24.65" shape-rendering="crispEdges"/><rect fill="#0d0d0d" x="0" y="123.5" width="12.2" height="24.65" shape-rendering="crispEdges"/><rect fill="#383838" x="12.2" y="123.5" width="146.4" height="24.65" shape-rendering="crispEdges"/><rect fill="#0d0d0d" x="158.6" y="123.5" width="97.6" height="24.65" shape-rendering="crispEdges"/><rect fill="#0d0d0d" x="256.2" y="123.5" width="146.4" height="24.65" shape-rendering="crispEdges"/><rect fill="#0d0d0d" x="402.6" y="123.5" width="73.2" height="24.65" shape-rendering="crispEdges"/><rect fill="#0d0d0d" x="475.8" y="123.5" width="73.2" height="24.65" shape-rendering="crispEdges"/><rect fill="#0d0d0d" x="549" y="123.5" width="122" height="24.65" shape-rendering="crispEdges"/><rect fill="#0d0d0d" x="671" y="123.5" width="366" height="24.65" shape-rendering="crispEdges"/><rect fill="#0d0d0d" x="1037" y="123.5" width="170.8" height="24.65" shape-rendering="crispEdges"/><rect fill="#0d0d0d" x="1207.8" y="123.5" width="12.2" height="24.65" shape-rendering="crispEdges"/><rect fill="#0d0d0d" x="0" y="147.9" width="12.2" height="24.65" shape-rendering="crispEdges"/><rect fill="#0d0d0d" x="12.2" y="147.9" width="146.4" height="24.65" shape-rendering="crispEdges"/><rect fill="#0d0d0d" x="158.6" y="147.9" width="97.6" height="24.65" shape-rendering="crispEdges"/><rect fill="#0d0d0d" x="256.2" y="147.9" width="146.4" height="24.65" shape-rendering="crispEdges"/><rect fill="#0d0d0d" x="402.6" y="147.9" width="73.2" height="24.65" shape-rendering="crispEdges"/><rect fill="#0d0d0d" x="475.8" y="147.9" width="73.2" height="24.65" shape-rendering="crispEdges"/><rect fill="#0d0d0d" x="549" y="147.9" width="122" height="24.65" shape-rendering="crispEdges"/><rect fill="#0d0d0d" x="671" y="147.9" width="366" height="24.65" shape-rendering="crispEdges"/><rect fill="#0d0d0d" x="1037" y="147.9" width="170.8" height="24.65" shape-rendering="crispEdges"/><rect fill="#0d0d0d" x="1207.8" y="147.9" width="12.2" height="24.65" shape-rendering="crispEdges"/><rect fill="#0d0d0d" x="0" y="172.3" width="12.2" height="24.65" shape-rendering="crispEdges"/><rect fill="#0d0d0d" x="12.2" y="172.3" width="146.4" height="24.65" shape-rendering="crispEdges"/><rect fill="#0d0d0d" x="158.6" y="172.3" width="97.6" height="24.65" shape-rendering="crispEdges"/><rect fill="#0d0d0d" x="256.2" y="172.3" width="146.4" height="24.65" shape-rendering="crispEdges"/><rect fill="#0d0d0d" x="402.6" y="172.3" width="73.2" height="24.65" shape-rendering="crispEdges"/><rect fill="#0d0d0d" x="475.8" y="172.3" width="73.2" height="24.65" shape-rendering="crispEdges"/><rect fill="#0d0d0d" x="549" y="172.3" width="122" height="24.65" shape-rendering="crispEdges"/><rect fill="#0d0d0d" x="671" y="172.3" width="366" height="24.65" shape-rendering="crispEdges"/><rect fill="#0d0d0d" x="1037" y="172.3" width="170.8" height="24.65" shape-rendering="crispEdges"/><rect fill="#0d0d0d" x="1207.8" y="172.3" width="12.2" height="24.65" shape-rendering="crispEdges"/><rect fill="#0d0d0d" x="0" y="196.7" width="12.2" height="24.65" shape-rendering="crispEdges"/><rect fill="#0d0d0d" x="12.2" y="196.7" width="1195.6" height="24.65" shape-rendering="crispEdges"/><rect fill="#0d0d0d" x="1207.8" y="196.7" width="12.2" height="24.65" shape-rendering="crispEdges"/><rect fill="#0d0d0d" x="0" y="221.1" width="12.2" height="24.65" shape-rendering="crispEdges"/><rect fill="#0d0d0d" x="12.2" y="221.1" width="1195.6" height="24.65" shape-rendering="crispEdges"/><rect fill="#0d0d0d" x="1207.8" y="221.1" width="12.2" height="24.65" shape-rendering="crispEdges"/><rect fill="#0d0d0d" x="0" y="245.5" width="12.2" height="24.65" shape-rendering="crispEdges"/><rect fill="#0d0d0d" x="12.2" y="245.5" width="1195.6" height="24.65" shape-rendering="crispEdges"/><rect fill="#0d0d0d" x="1207.8" y="245.5" width="12.2" height="24.65" shape-rendering="crispEdges"/><rect fill="#0d0d0d" x="0" y="269.9" width="12.2" height="24.65" shape-rendering="crispEdges"/><rect fill="#0d0d0d" x="12.2" y="269.9" width="1195.6" height="24.65" shape-rendering="crispEdges"/><rect fill="#0d0d0d" x="1207.8" y="269.9" width="12.2" height="24.65" shape-rendering="crispEdges"/><rect fill="#0d0d0d" x="0" y="294.3" width="12.2" height="24.65" shape-rendering="crispEdges"/><rect fill="#0d0d0d" x="12.2" y="294.3" width="1195.6" height="24.65" shape-rendering="crispEdges"/><rect fill="#0d0d0d" x="1207.8" y="294.3" width="12.2" height="24.65" shape-rendering="crispEdges"/><rect fill="#0d0d0d" x="0" y="318.7" width="12.2" height="24.65" shape-rendering="crispEdges"/><rect fill="#0d0d0d" x="12.2" y="318.7" width="1195.6" height="24.65" shape-rendering="crispEdges"/><rect fill="#0d0d0d" x="1207.8" y="318.7" width="12.2" height="24.65" shape-rendering="crispEdges"/><rect fill="#0d0d0d" x="0" y="343.1" width="12.2" height="24.65" shape-rendering="crispEdges"/><rect fill="#0d0d0d" x="12.2" y="343.1" width="1195.6" height="24.65" shape-rendering="crispEdges"/><rect fill="#0d0d0d" x="1207.8" y="343.1" width="12.2" height="24.65" shape-rendering="crispEdges"/><rect fill="#0d0d0d" x="0" y="367.5" width="1220" height="24.65" shape-rendering="crispEdges"/><rect fill="#0d0d0d" x="0" y="391.9" width="12.2" height="24.65" shape-rendering="crispEdges"/><rect fill="#0d0d0d" x="12.2" y="391.9" width="48.8" height="24.65" shape-rendering="crispEdges"/><rect fill="#0d0d0d" x="61" y="391.9" width="1122.4" height="24.65" shape-rendering="crispEdges"/><rect fill="#000000" x="1183.4" y="391.9" width="24.4" height="24.65" shape-rendering="crispEdges"/><rect fill="#0d0d0d" x="1207.8" y="391.9" width="12.2" height="24.65" shape-rendering="crispEdges"/><rect fill="#0d0d0d" x="0" y="416.3" width="12.2" height="24.65" shape-rendering="crispEdges"/><rect fill="#0d0d0d" x="12.2" y="416.3" width="451.4" height="24.65" shape-rendering="crispEdges"/><rect fill="#0d0d0d" x="463.6" y="416.3" width="719.8" height="24.65" shape-rendering="crispEdges"/><rect fill="#000000" x="1183.4" y="416.3" width="24.4" height="24.65" shape-rendering="crispEdges"/><rect fill="#0d0d0d" x="1207.8" y="416.3" width="12.2" height="24.65" shape-rendering="crispEdges"/><rect fill="#0d0d0d" x="0" y="440.7" width="12.2" height="24.65" shape-rendering="crispEdges"/><rect fill="#0d0d0d" x="12.2" y="440.7" width="1171.2" height="24.65" shape-rendering="crispEdges"/><rect fill="#000000" x="1183.4" y="440.7" width="24.4" height="24.65" shape-rendering="crispEdges"/><rect fill="#0d0d0d" x="1207.8" y="440.7" width="12.2" height="24.65" shape-rendering="crispEdges"/><rect fill="#0d0d0d" x="0" y="465.1" width="12.2" height="24.65" shape-rendering="crispEdges"/><rect fill="#0d0d0d" x="12.2" y="465.1" width="97.6" height="24.65" shape-rendering="crispEdges"/><rect fill="#0d0d0d" x="109.8" y="465.1" width="1073.6" height="24.65" shape-rendering="crispEdges"/><rect fill="#000000" x="1183.4" y="465.1" width="24.4" height="24.65" shape-rendering="crispEdges"/><rect fill="#0d0d0d" x="1207.8" y="465.1" width="12.2" height="24.65" shape-rendering="crispEdges"/><rect fill="#0d0d0d" x="0" y="489.5" width="12.2" height="24.65" shape-rendering="crispEdges"/><rect fill="#0d0d0d" x="12.2" y="489.5" width="976" height="24.65" shape-rendering="crispEdges"/><rect fill="#0d0d0d" x="988.2" y="489.5" width="195.2" height="24.65" shape-rendering="crispEdges"/><rect fill="#000000" x="1183.4" y="489.5" width="24.4" height="24.65" shape-rendering="crispEdges"/><rect fill="#0d0d0d" x="1207.8" y="489.5" width="12.2" height="24.65" shape-rendering="crispEdges"/><rect fill="#0d0d0d" x="0" y="513.9" width="12.2" height="24.65" shape-rendering="crispEdges"/><rect fill="#0d0d0d" x="12.2" y="513.9" width="1171.2" height="24.65" shape-rendering="crispEdges"/><rect fill="#000000" x="1183.4" y="513.9" width="24.4" height="24.65" shape-rendering="crispEdges"/><rect fill="#0d0d0d" x="1207.8" y="513.9" width="12.2" height="24.65" shape-rendering="crispEdges"/><rect fill="#0d0d0d" x="0" y="538.3" width="12.2" height="24.65" shape-rendering="crispEdges"/><rect fill="#0d0d0d" x="12.2" y="538.3" width="36.6" height="24.65" shape-rendering="crispEdges"/><rect fill="#0d0d0d" x="48.8" y="538.3" width="939.4" height="24.65" shape-rendering="crispEdges"/><rect fill="#0d0d0d" x="988.2" y="538.3" width="195.2" height="24.65" shape-rendering="crispEdges"/><rect fill="#000000" x="1183.4" y="538.3" width="24.4" height="24.65" shape-rendering="crispEdges"/><rect fill="#0d0d0d" x="1207.8" y="538.3" width="12.2" height="24.65" shape-rendering="crispEdges"/><rect fill="#0d0d0d" x="0" y="562.7" width="12.2" height="24.65" shape-rendering="crispEdges"/><rect fill="#0d0d0d" x="12.2" y="562.7" width="36.6" height="24.65" shape-rendering="crispEdges"/><rect fill="#0d0d0d" x="48.8" y="562.7" width="939.4" height="24.65" shape-rendering="crispEdges"/><rect fill="#0d0d0d" x="988.2" y="562.7" width="195.2" height="24.65" shape-rendering="crispEdges"/><rect fill="#000000" x="1183.4" y="562.7" width="24.4" height="24.65" shape-rendering="crispEdges"/><rect fill="#0d0d0d" x="1207.8" y="562.7" width="12.2" height="24.65" shape-rendering="crispEdges"/><rect fill="#0d0d0d" x="0" y="587.1" width="12.2" height="24.65" shape-rendering="crispEdges"/><rect fill="#0d0d0d" x="12.2" y="587.1" width="36.6" height="24.65" shape-rendering="crispEdges"/><rect fill="#0d0d0d" x="48.8" y="587.1" width="61" height="24.65" shape-rendering="crispEdges"/><rect fill="#0d0d0d" x="109.8" y="587.1" width="97.6" height="24.65" shape-rendering="crispEdges"/><rect fill="#0d0d0d" x="207.4" y="587.1" width="780.8" height="24.65" shape-rendering="crispEdges"/><rect fill="#0d0d0d" x="988.2" y="587.1" width="195.2" height="24.65" shape-rendering="crispEdges"/><rect fill="#000000" x="1183.4" y="587.1" width="24.4" height="24.65" shape-rendering="crispEdges"/><rect fill="#0d0d0d" x="1207.8" y="587.1" width="12.2" height="24.65" shape-rendering="crispEdges"/><rect fill="#0d0d0d" x="0" y="611.5" width="12.2" height="24.65" shape-rendering="crispEdges"/><rect fill="#0d0d0d" x="12.2" y="611.5" width="1171.2" height="24.65" shape-rendering="crispEdges"/><rect fill="#000000" x="1183.4" y="611.5" width="24.4" height="24.65" shape-rendering="crispEdges"/><rect fill="#0d0d0d" x="1207.8" y="611.5" width="12.2" height="24.65" shape-rendering="crispEdges"/><rect fill="#0d0d0d" x="0" y="635.9" width="12.2" height="24.65" shape-rendering="crispEdges"/><rect fill="#0d0d0d" x="12.2" y="635.9" width="1171.2" height="24.65" shape-rendering="crispEdges"/><rect fill="#000000" x="1183.4" y="635.9" width="24.4" height="24.65" shape-rendering="crispEdges"/><rect fill="#0d0d0d" x="1207.8" y="635.9" width="12.2" height="24.65" shape-rendering="crispEdges"/><rect fill="#0d0d0d" x="0" y="660.3" width="12.2" height="24.65" shape-rendering="crispEdges"/><rect fill="#0d0d0d" x="12.2" y="660.3" width="1171.2" height="24.65" shape-rendering="crispEdges"/><rect fill="#000000" x="1183.4" y="660.3" width="24.4" height="24.65" shape-rendering="crispEdges"/><rect fill="#0d0d0d" x="1207.8" y="660.3" width="12.2" height="24.65" shape-rendering="crispEdges"/><rect fill="#0d0d0d" x="0" y="684.7" width="12.2" height="24.65" shape-rendering="crispEdges"/><rect fill="#0d0d0d" x="12.2" y="684.7" width="1171.2" height="24.65" shape-rendering="crispEdges"/><rect fill="#000000" x="1183.4" y="684.7" width="24.4" height="24.65" shape-rendering="crispEdges"/><rect fill="#0d0d0d" x="1207.8" y="684.7" width="12.2" height="24.65" shape-rendering="crispEdges"/><rect fill="#0d0d0d" x="0" y="709.1" width="12.2" height="24.65" shape-rendering="crispEdges"/><rect fill="#0d0d0d" x="12.2" y="709.1" width="1171.2" height="24.65" shape-rendering="crispEdges"/><rect fill="#000000" x="1183.4" y="709.1" width="24.4" height="24.65" shape-rendering="crispEdges"/><rect fill="#0d0d0d" x="1207.8" y="709.1" width="12.2" height="24.65" shape-rendering="crispEdges"/><rect fill="#0d0d0d" x="0" y="733.5" width="12.2" height="24.65" shape-rendering="crispEdges"/><rect fill="#0d0d0d" x="12.2" y="733.5" width="1171.2" height="24.65" shape-rendering="crispEdges"/><rect fill="#000000" x="1183.4" y="733.5" width="24.4" height="24.65" shape-rendering="crispEdges"/><rect fill="#0d0d0d" x="1207.8" y="733.5" width="12.2" height="24.65" shape-rendering="crispEdges"/><rect fill="#0d0d0d" x="0" y="757.9" width="12.2" height="24.65" shape-rendering="crispEdges"/><rect fill="#0d0d0d" x="12.2" y="757.9" width="1171.2" height="24.65" shape-rendering="crispEdges"/><rect fill="#000000" x="1183.4" y="757.9" width="24.4" height="24.65" shape-rendering="crispEdges"/><rect fill="#0d0d0d" x="1207.8" y="757.9" width="12.2" height="24.65" shape-rendering="crispEdges"/><rect fill="#0d0d0d" x="0" y="782.3" width="12.2" height="24.65" shape-rendering="crispEdges"/><rect fill="#0d0d0d" x="12.2" y="782.3" width="500.2" height="24.65" shape-rendering="crispEdges"/><rect fill="#0d0d0d" x="512.4" y="782.3" width="695.4" height="24.65" shape-rendering="crispEdges"/><rect fill="#0d0d0d" x="1207.8" y="782.3" width="12.2" height="24.65" shape-rendering="crispEdges"/><rect fill="#0d0d0d" x="0" y="806.7" width="12.2" height="24.65" shape-rendering="crispEdges"/><rect fill="#0d0d0d" x="12.2" y="806.7" width="24.4" height="24.65" shape-rendering="crispEdges"/><rect fill="#181818" x="36.6" y="806.7" width="1171.2" height="24.65" shape-rendering="crispEdges"/><rect fill="#0d0d0d" x="1207.8" y="806.7" width="12.2" height="24.65" shape-rendering="crispEdges"/><rect fill="#0d0d0d" x="0" y="831.1" width="12.2" height="24.65" shape-rendering="crispEdges"/><rect fill="#0d0d0d" x="12.2" y="831.1" width="12.2" height="24.65" shape-rendering="crispEdges"/><rect fill="#0d0d0d" x="24.4" y="831.1" width="12.2" height="24.65" shape-rendering="crispEdges"/><rect fill="#181818" x="36.6" y="831.1" width="12.2" height="24.65" shape-rendering="crispEdges"/><rect fill="#ffffff" x="48.8" y="831.1" width="24.4" height="24.65" shape-rendering="crispEdges"/><rect fill="#181818" x="73.2" y="831.1" width="378.2" height="24.65" shape-rendering="crispEdges"/><rect fill="#181818" x="451.4" y="831.1" width="744.2" height="24.65" shape-rendering="crispEdges"/><rect fill="#181818" x="1195.6" y="831.1" width="12.2" height="24.65" shape-rendering="crispEdges"/><rect fill="#0d0d0d" x="1207.8" y="831.1" width="12.2" height="24.65" shape-rendering="crispEdges"/><rect fill="#0d0d0d" x="0" y="855.5" width="12.2" height="24.65" shape-rendering="crispEdges"/><rect fill="#0d0d0d" x="12.2" y="855.5" width="24.4" height="24.65" shape-rendering="crispEdges"/><rect fill="#181818" x="36.6" y="855.5" width="1171.2" height="24.65" shape-rendering="crispEdges"/><rect fill="#0d0d0d" x="1207.8" y="855.5" width="12.2" height="24.65" shape-rendering="crispEdges"/><rect fill="#0d0d0d" x="0" y="879.9" width="12.2" height="24.65" shape-rendering="crispEdges"/><rect fill="#0d0d0d" x="12.2" y="879.9" width="805.2" height="24.65" shape-rendering="crispEdges"/><rect fill="#0d0d0d" x="817.4" y="879.9" width="390.4" height="24.65" shape-rendering="crispEdges"/><rect fill="#0d0d0d" x="1207.8" y="879.9" width="12.2" height="24.65" shape-rendering="crispEdges"/><rect fill="#181818" x="0" y="904.3" width="48.8" height="24.65" shape-rendering="crispEdges"/><rect fill="#181818" x="48.8" y="904.3" width="61" height="24.65" shape-rendering="crispEdges"/><rect fill="#181818" x="109.8" y="904.3" width="48.8" height="24.65" shape-rendering="crispEdges"/><rect fill="#181818" x="158.6" y="904.3" width="61" height="24.65" shape-rendering="crispEdges"/><rect fill="#181818" x="219.6" y="904.3" width="48.8" height="24.65" shape-rendering="crispEdges"/><rect fill="#181818" x="268.4" y="904.3" width="122" height="24.65" shape-rendering="crispEdges"/><rect fill="#181818" x="390.4" y="904.3" width="48.8" height="24.65" shape-rendering="crispEdges"/><rect fill="#181818" x="439.2" y="904.3" width="61" height="24.65" shape-rendering="crispEdges"/><rect fill="#181818" x="500.2" y="904.3" width="48.8" height="24.65" shape-rendering="crispEdges"/><rect fill="#181818" x="549" y="904.3" width="85.4" height="24.65" shape-rendering="crispEdges"/><rect fill="#181818" x="634.4" y="904.3" width="48.8" height="24.65" shape-rendering="crispEdges"/><rect fill="#181818" x="683.2" y="904.3" width="109.8" height="24.65" shape-rendering="crispEdges"/><rect fill="#181818" x="793" y="904.3" width="48.8" height="24.65" shape-rendering="crispEdges"/><rect fill="#181818" x="841.8" y="904.3" width="61" height="24.65" shape-rendering="crispEdges"/><rect fill="#181818" x="902.8" y="904.3" width="61" height="24.65" shape-rendering="crispEdges"/><rect fill="#181818" x="963.8" y="904.3" width="85.4" height="24.65" shape-rendering="crispEdges"/><rect fill="#181818" x="1049.2" y="904.3" width="12.2" height="24.65" shape-rendering="crispEdges"/><rect fill="#181818" x="1061.4" y="904.3" width="24.4" height="24.65" shape-rendering="crispEdges"/><rect fill="#181818" x="1085.8" y="904.3" width="24.4" height="24.65" shape-rendering="crispEdges"/><rect fill="#181818" x="1110.2" y="904.3" width="97.6" height="24.65" shape-rendering="crispEdges"/><rect fill="#181818" x="1207.8" y="904.3" width="12.2" height="24.65" shape-rendering="crispEdges"/>
    <g class="terminal-2024413555-matrix">
    <text class="terminal-2024413555-r2" x="12.2" y="20" textLength="12.2" clip-path="url(#terminal-2024413555-line-0)">⭘</text><text class="terminal-2024413555-r2" x="500.2" y="20" textLength="122" clip-path="url(#terminal-2024413555-line-0)">TeamAgents</text><text class="terminal-2024413555-r3" x="622.2" y="20" textLength="36.6" clip-path="url(#terminal-2024413555-line-0)">&#160;—&#160;</text><text class="terminal-2024413555-r3" x="658.8" y="20" textLength="24.4" clip-path="url(#terminal-2024413555-line-0)">s1</text><text class="terminal-2024413555-r4" x="1110.2" y="20" textLength="97.6" clip-path="url(#terminal-2024413555-line-0)">14:42:33</text><text class="terminal-2024413555-r1" x="1220" y="20" textLength="12.2" clip-path="url(#terminal-2024413555-line-0)">
</text><text class="terminal-2024413555-r2" x="12.2" y="44.4" textLength="1024.8" clip-path="url(#terminal-2024413555-line-1)">&#160;会话&#160;s1&#160;&#160;|&#160;&#160;ACTIVE&#160;&#160;|&#160;&#160;权限&#160;approved_scope&#160;&#160;|&#160;&#160;Leader&#160;Leader(test)&#160;&#160;|&#160;&#160;活动回合&#160;0&#160;&#160;|&#160;&#160;未完成任务</text><text class="terminal-2024413555-r1" x="1220" y="44.4" textLength="12.2" clip-path="url(#terminal-2024413555-line-1)">
</text><text class="terminal-2024413555-r5" x="24.4" y="68.8" textLength="24.4" clip-path="url(#terminal-2024413555-line-2)">团队</text><text class="terminal-2024413555-r6" x="97.6" y="68.8" textLength="24.4" clip-path="url(#terminal-2024413555-line-2)">任务</text><text class="terminal-2024413555-r6" x="170.8" y="68.8" textLength="48.8" clip-path="url(#terminal-2024413555-line-2)">共享空间</text><text class="terminal-2024413555-r6" x="292.8" y="68.8" textLength="24.4" clip-path="url(#terminal-2024413555-line-2)">批准</text><text class="terminal-2024413555-r6" x="366" y="68.8" textLength="24.4" clip-path="url(#terminal-2024413555-line-2)">会话</text><text class="terminal-2024413555-r6" x="439.2" y="68.8" textLength="24.4" clip-path="url(#terminal-2024413555-line-2)">日志</text><text class="terminal-2024413555-r6" x="512.4" y="68.8" textLength="24.4" clip-path="url(#terminal-2024413555-line-2)">设置</text><text class="terminal-2024413555-r1" x="1220" y="68.8" textLength="12.2" clip-path="url(#terminal-2024413555-line-2)">
</text><text class="terminal-2024413555-r7" x="12.2" y="93.2" textLength="12.2" clip-path="url(#terminal-2024413555-line-3)">╸</text><text class="terminal-2024413555-r8" x="24.4" y="93.2" textLength="48.8" clip-path="url(#terminal-2024413555-line-3)">━━━━</text><text class="terminal-2024413555-r7" x="73.2" y="93.2" textLength="12.2" clip-path="url(#terminal-2024413555-line-3)">╺</text><text class="terminal-2024413555-r7" x="85.4" y="93.2" textLength="1122.4" clip-path="url(#terminal-2024413555-line-3)">━━━━━━━━━━━━━━━━━━━━━━━━━━━━━━━━━━━━━━━━━━━━━━━━━━━━━━━━━━━━━━━━━━━━━━━━━━━━━━━━━━━━━━━━━━━━</text><text class="terminal-2024413555-r1" x="1220" y="93.2" textLength="12.2" clip-path="url(#terminal-2024413555-line-3)">
</text><text class="terminal-2024413555-r9" x="12.2" y="117.6" textLength="122" clip-path="url(#terminal-2024413555-line-4)">&#160;成员&#160;&#160;&#160;&#160;&#160;&#160;&#160;</text><text class="terminal-2024413555-r9" x="158.6" y="117.6" textLength="73.2" clip-path="url(#terminal-2024413555-line-4)">&#160;角色&#160;&#160;&#160;</text><text class="terminal-2024413555-r9" x="256.2" y="117.6" textLength="122" clip-path="url(#terminal-2024413555-line-4)">&#160;类型&#160;&#160;&#160;&#160;&#160;&#160;&#160;</text><text class="terminal-2024413555-r9" x="402.6" y="117.6" textLength="48.8" clip-path="url(#terminal-2024413555-line-4)">&#160;模型&#160;</text><text class="terminal-2024413555-r9" x="475.8" y="117.6" textLength="48.8" clip-path="url(#terminal-2024413555-line-4)">&#160;状态&#160;</text><text class="terminal-2024413555-r9" x="549" y="117.6" textLength="73.2" clip-path="url(#terminal-2024413555-line-4)">&#160;工作目录&#160;</text><text class="terminal-2024413555-r9" x="671" y="117.6" textLength="317.2" clip-path="url(#terminal-2024413555-line-4)">&#160;可见范围&#160;&#160;&#160;&#160;&#160;&#160;&#160;&#160;&#160;&#160;&#160;&#160;&#160;&#160;&#160;&#160;&#160;&#160;&#160;&#160;&#160;</text><text class="terminal-2024413555-r1" x="1220" y="117.6" textLength="12.2" clip-path="url(#terminal-2024413555-line-4)">
</text><text class="terminal-2024413555-r10" x="12.2" y="142" textLength="146.4" clip-path="url(#terminal-2024413555-line-5)">&#160;leader&#160;&#160;&#160;&#160;&#160;</text><text class="terminal-2024413555-r10" x="158.6" y="142" textLength="97.6" clip-path="url(#terminal-2024413555-line-5)">&#160;leader&#160;</text><text class="terminal-2024413555-r10" x="256.2" y="142" textLength="146.4" clip-path="url(#terminal-2024413555-line-5)">&#160;deepagents&#160;</text><text class="terminal-2024413555-r10" x="402.6" y="142" textLength="73.2" clip-path="url(#terminal-2024413555-line-5)">&#160;test&#160;</text><text class="terminal-2024413555-r10" x="475.8" y="142" textLength="73.2" clip-path="url(#terminal-2024413555-line-5)">&#160;IDLE&#160;</text><text class="terminal-2024413555-r10" x="549" y="142" textLength="122" clip-path="url(#terminal-2024413555-line-5)">&#160;shared&#160;&#160;&#160;</text><text class="terminal-2024413555-r10" x="671" y="142" textLength="341.6" clip-path="url(#terminal-2024413555-line-5)">&#160;任务→coder,leader,researcher&#160;</text><text class="terminal-2024413555-r1" x="1220" y="142" textLength="12.2" clip-path="url(#terminal-2024413555-line-5)">
</text><text class="terminal-2024413555-r10" x="12.2" y="166.4" textLength="146.4" clip-path="url(#terminal-2024413555-line-6)">&#160;researcher&#160;</text><text class="terminal-2024413555-r10" x="158.6" y="166.4" textLength="97.6" clip-path="url(#terminal-2024413555-line-6)">&#160;worker&#160;</text><text class="terminal-2024413555-r10" x="256.2" y="166.4" textLength="146.4" clip-path="url(#terminal-2024413555-line-6)">&#160;deepagents&#160;</text><text class="terminal-2024413555-r10" x="402.6" y="166.4" textLength="73.2" clip-path="url(#terminal-2024413555-line-6)">&#160;test&#160;</text><text class="terminal-2024413555-r10" x="475.8" y="166.4" textLength="73.2" clip-path="url(#terminal-2024413555-line-6)">&#160;IDLE&#160;</text><text class="terminal-2024413555-r10" x="549" y="166.4" textLength="122" clip-path="url(#terminal-2024413555-line-6)">&#160;shared&#160;&#160;&#160;</text><text class="terminal-2024413555-r10" x="671" y="166.4" textLength="366" clip-path="url(#terminal-2024413555-line-6)">&#160;-&#160;&#160;&#160;&#160;&#160;&#160;&#160;&#160;&#160;&#160;&#160;&#160;&#160;&#160;&#160;&#160;&#160;&#160;&#160;&#160;&#160;&#160;&#160;&#160;&#160;&#160;&#160;&#160;</text><text class="terminal-2024413555-r1" x="1220" y="166.4" textLength="12.2" clip-path="url(#terminal-2024413555-line-6)">
</text><text class="terminal-2024413555-r10" x="12.2" y="190.8" textLength="146.4" clip-path="url(#terminal-2024413555-line-7)">&#160;coder&#160;&#160;&#160;&#160;&#160;&#160;</text><text class="terminal-2024413555-r10" x="158.6" y="190.8" textLength="97.6" clip-path="url(#terminal-2024413555-line-7)">&#160;worker&#160;</text><text class="terminal-2024413555-r10" x="256.2" y="190.8" textLength="146.4" clip-path="url(#terminal-2024413555-line-7)">&#160;deepagents&#160;</text><text class="terminal-2024413555-r10" x="402.6" y="190.8" textLength="73.2" clip-path="url(#terminal-2024413555-line-7)">&#160;test&#160;</text><text class="terminal-2024413555-r10" x="475.8" y="190.8" textLength="73.2" clip-path="url(#terminal-2024413555-line-7)">&#160;IDLE&#160;</text><text class="terminal-2024413555-r10" x="549" y="190.8" textLength="122" clip-path="url(#terminal-2024413555-line-7)">&#160;shared&#160;&#160;&#160;</text><text class="terminal-2024413555-r10" x="671" y="190.8" textLength="366" clip-path="url(#terminal-2024413555-line-7)">&#160;-&#160;&#160;&#160;&#160;&#160;&#160;&#160;&#160;&#160;&#160;&#160;&#160;&#160;&#160;&#160;&#160;&#160;&#160;&#160;&#160;&#160;&#160;&#160;&#160;&#160;&#160;&#160;&#160;</text><text class="terminal-2024413555-r1" x="1220" y="190.8" textLength="12.2" clip-path="url(#terminal-2024413555-line-7)">
</text><text class="terminal-2024413555-r1" x="1220" y="215.2" textLength="12.2" clip-path="url(#terminal-2024413555-line-8)">
</text><text class="terminal-2024413555-r1" x="1220" y="239.6" textLength="12.2" clip-path="url(#terminal-2024413555-line-9)">
</text><text class="terminal-2024413555-r1" x="1220" y="264" textLength="12.2" clip-path="url(#terminal-2024413555-line-10)">
</text><text class="terminal-2024413555-r1" x="1220" y="288.4" textLength="12.2" clip-path="url(#terminal-2024413555-line-11)">
</text><text class="terminal-2024413555-r1" x="1220" y="312.8" textLength="12.2" clip-path="url(#terminal-2024413555-line-12)">
</text><text class="terminal-2024413555-r1" x="1220" y="337.2" textLength="12.2" clip-path="url(#terminal-2024413555-line-13)">
</text><text class="terminal-2024413555-r1" x="1220" y="361.6" textLength="12.2" clip-path="url(#terminal-2024413555-line-14)">
</text><text class="terminal-2024413555-r11" x="0" y="386" textLength="1220" clip-path="url(#terminal-2024413555-line-15)">────────────────────────────────────────────────────────────────────────────────────────────────────</text><text class="terminal-2024413555-r1" x="1220" y="386" textLength="12.2" clip-path="url(#terminal-2024413555-line-15)">
</text><text class="terminal-2024413555-r12" x="12.2" y="410.4" textLength="36.6" clip-path="url(#terminal-2024413555-line-16)">›&#160;你</text><text class="terminal-2024413555-r1" x="1220" y="410.4" textLength="12.2" clip-path="url(#terminal-2024413555-line-16)">
</text><text class="terminal-2024413555-r10" x="12.2" y="434.8" textLength="268.4" clip-path="url(#terminal-2024413555-line-17)">审查&#160;Agent&#160;协作问题，并改进终端交互。</text><text class="terminal-2024413555-r1" x="1220" y="434.8" textLength="12.2" clip-path="url(#terminal-2024413555-line-17)">
</text><text class="terminal-2024413555-r1" x="1220" y="459.2" textLength="12.2" clip-path="url(#terminal-2024413555-line-18)">
</text><text class="terminal-2024413555-r12" x="12.2" y="483.6" textLength="97.6" clip-path="url(#terminal-2024413555-line-19)">•&#160;Leader</text><text class="terminal-2024413555-r1" x="1220" y="483.6" textLength="12.2" clip-path="url(#terminal-2024413555-line-19)">
</text><text class="terminal-2024413555-r10" x="12.2" y="508" textLength="768.6" clip-path="url(#terminal-2024413555-line-20)">已完成协作修复，正在验证终端交互。&#160;&#160;&#160;&#160;&#160;&#160;&#160;&#160;&#160;&#160;&#160;&#160;&#160;&#160;&#160;&#160;&#160;&#160;&#160;&#160;&#160;&#160;&#160;&#160;&#160;&#160;&#160;&#160;&#160;&#160;&#160;&#160;&#160;&#160;&#160;&#160;&#160;&#160;&#160;&#160;&#160;&#160;&#160;&#160;&#160;&#160;</text><text class="terminal-2024413555-r1" x="1220" y="508" textLength="12.2" clip-path="url(#terminal-2024413555-line-20)">
</text><text class="terminal-2024413555-r1" x="1220" y="532.4" textLength="12.2" clip-path="url(#terminal-2024413555-line-21)">
</text><text class="terminal-2024413555-r5" x="12.2" y="556.8" textLength="36.6" clip-path="url(#terminal-2024413555-line-22)">&#160;•&#160;</text><text class="terminal-2024413555-r10" x="48.8" y="556.8" textLength="756.4" clip-path="url(#terminal-2024413555-line-22)">成员独立执行，及时接收补充要求&#160;&#160;&#160;&#160;&#160;&#160;&#160;&#160;&#160;&#160;&#160;&#160;&#160;&#160;&#160;&#160;&#160;&#160;&#160;&#160;&#160;&#160;&#160;&#160;&#160;&#160;&#160;&#160;&#160;&#160;&#160;&#160;&#160;&#160;&#160;&#160;&#160;&#160;&#160;&#160;&#160;&#160;&#160;&#160;&#160;&#160;&#160;</text><text class="terminal-2024413555-r1" x="1220" y="556.8" textLength="12.2" clip-path="url(#terminal-2024413555-line-22)">
</text><text class="terminal-2024413555-r5" x="12.2" y="581.2" textLength="36.6" clip-path="url(#terminal-2024413555-line-23)">&#160;•&#160;</text><text class="terminal-2024413555-r10" x="48.8" y="581.2" textLength="805.2" clip-path="url(#terminal-2024413555-line-23)">团队变更在安全边界生效&#160;&#160;&#160;&#160;&#160;&#160;&#160;&#160;&#160;&#160;&#160;&#160;&#160;&#160;&#160;&#160;&#160;&#160;&#160;&#160;&#160;&#160;&#160;&#160;&#160;&#160;&#160;&#160;&#160;&#160;&#160;&#160;&#160;&#160;&#160;&#160;&#160;&#160;&#160;&#160;&#160;&#160;&#160;&#160;&#160;&#160;&#160;&#160;&#160;&#160;&#160;&#160;&#160;&#160;&#160;</text><text class="terminal-2024413555-r1" x="1220" y="581.2" textLength="12.2" clip-path="url(#terminal-2024413555-line-23)">
</text><text class="terminal-2024413555-r5" x="12.2" y="605.6" textLength="36.6" clip-path="url(#terminal-2024413555-line-24)">&#160;•&#160;</text><text class="terminal-2024413555-r10" x="48.8" y="605.6" textLength="36.6" clip-path="url(#terminal-2024413555-line-24)">支持&#160;</text><text class="terminal-2024413555-r5" x="109.8" y="605.6" textLength="48.8" clip-path="url(#terminal-2024413555-line-24)">多行输入</text><text class="terminal-2024413555-r10" x="207.4" y="605.6" textLength="695.4" clip-path="url(#terminal-2024413555-line-24)">&#160;和历史草稿恢复&#160;&#160;&#160;&#160;&#160;&#160;&#160;&#160;&#160;&#160;&#160;&#160;&#160;&#160;&#160;&#160;&#160;&#160;&#160;&#160;&#160;&#160;&#160;&#160;&#160;&#160;&#160;&#160;&#160;&#160;&#160;&#160;&#160;&#160;&#160;&#160;&#160;&#160;&#160;&#160;&#160;&#160;&#160;&#160;&#160;&#160;&#160;&#160;&#160;</text><text class="terminal-2024413555-r1" x="1220" y="605.6" textLength="12.2" clip-path="url(#terminal-2024413555-line-24)">
</text><text class="terminal-2024413555-r1" x="1220" y="630" textLength="12.2" clip-path="url(#terminal-2024413555-line-25)">
</text><text class="terminal-2024413555-r1" x="1220" y="654.4" textLength="12.2" clip-path="url(#terminal-2024413555-line-26)">
</text><text class="terminal-2024413555-r1" x="1220" y="678.8" textLength="12.2" clip-path="url(#terminal-2024413555-line-27)">
</text><text class="terminal-2024413555-r1" x="1220" y="703.2" textLength="12.2" clip-path="url(#terminal-2024413555-line-28)">
</text><text class="terminal-2024413555-r1" x="1220" y="727.6" textLength="12.2" clip-path="url(#terminal-2024413555-line-29)">
</text><text class="terminal-2024413555-r1" x="1220" y="752" textLength="12.2" clip-path="url(#terminal-2024413555-line-30)">
</text><text class="terminal-2024413555-r1" x="1220" y="776.4" textLength="12.2" clip-path="url(#terminal-2024413555-line-31)">
</text><text class="terminal-2024413555-r6" x="12.2" y="800.8" textLength="366" clip-path="url(#terminal-2024413555-line-32)">就绪&#160;·&#160;Leader&#160;/&#160;test&#160;·&#160;可继续输入补充要求</text><text class="terminal-2024413555-r1" x="1220" y="800.8" textLength="12.2" clip-path="url(#terminal-2024413555-line-32)">
</text><text class="terminal-2024413555-r1" x="1220" y="825.2" textLength="12.2" clip-path="url(#terminal-2024413555-line-33)">
</text><text class="terminal-2024413555-r13" x="12.2" y="849.6" textLength="12.2" clip-path="url(#terminal-2024413555-line-34)">›</text><text class="terminal-2024413555-r14" x="48.8" y="849.6" textLength="12.2" clip-path="url(#terminal-2024413555-line-34)">请</text><text class="terminal-2024413555-r10" x="73.2" y="849.6" textLength="195.2" clip-path="url(#terminal-2024413555-line-34)">继续验证窄屏下的批准与会话切换&#160;</text><text class="terminal-2024413555-r1" x="1220" y="849.6" textLength="12.2" clip-path="url(#terminal-2024413555-line-34)">
</text><text class="terminal-2024413555-r1" x="1220" y="874" textLength="12.2" clip-path="url(#terminal-2024413555-line-35)">
</text><text class="terminal-2024413555-r6" x="12.2" y="898.4" textLength="707.6" clip-path="url(#terminal-2024413555-line-36)">Enter&#160;发送&#160;·&#160;Shift+Enter&#160;/&#160;Ctrl+J&#160;换行&#160;·&#160;↑↓&#160;历史&#160;·&#160;Esc&#160;停止&#160;Leader</text><text class="terminal-2024413555-r1" x="1220" y="898.4" textLength="12.2" clip-path="url(#terminal-2024413555-line-36)">
</text><text class="terminal-2024413555-r13" x="0" y="922.8" textLength="48.8" clip-path="url(#terminal-2024413555-line-37)">&#160;^j&#160;</text><text class="terminal-2024413555-r10" x="48.8" y="922.8" textLength="36.6" clip-path="url(#terminal-2024413555-line-37)">换行&#160;</text><text class="terminal-2024413555-r13" x="109.8" y="922.8" textLength="48.8" clip-path="url(#terminal-2024413555-line-37)">&#160;^q&#160;</text><text class="terminal-2024413555-r10" x="158.6" y="922.8" textLength="36.6" clip-path="url(#terminal-2024413555-line-37)">退出&#160;</text><text class="terminal-2024413555-r13" x="219.6" y="922.8" textLength="48.8" clip-path="url(#terminal-2024413555-line-37)">&#160;^p&#160;</text><text class="terminal-2024413555-r10" x="268.4" y="922.8" textLength="73.2" clip-path="url(#terminal-2024413555-line-37)">暂停/继续&#160;</text><text class="terminal-2024413555-r13" x="390.4" y="922.8" textLength="48.8" clip-path="url(#terminal-2024413555-line-37)">&#160;^r&#160;</text><text class="terminal-2024413555-r10" x="439.2" y="922.8" textLength="36.6" clip-path="url(#terminal-2024413555-line-37)">刷新&#160;</text><text class="terminal-2024413555-r13" x="500.2" y="922.8" textLength="48.8" clip-path="url(#terminal-2024413555-line-37)">&#160;^f&#160;</text><text class="terminal-2024413555-r10" x="549" y="922.8" textLength="48.8" clip-path="url(#terminal-2024413555-line-37)">全自动&#160;</text><text class="terminal-2024413555-r13" x="634.4" y="922.8" textLength="48.8" clip-path="url(#terminal-2024413555-line-37)">&#160;^t&#160;</text><text class="terminal-2024413555-r10" x="683.2" y="922.8" textLength="61" clip-path="url(#terminal-2024413555-line-37)">切换面板&#160;</text><text class="terminal-2024413555-r13" x="793" y="922.8" textLength="48.8" clip-path="url(#terminal-2024413555-line-37)">&#160;^g&#160;</text><text class="terminal-2024413555-r10" x="841.8" y="922.8" textLength="36.6" clip-path="url(#terminal-2024413555-line-37)">批准&#160;</text><text class="terminal-2024413555-r13" x="902.8" y="922.8" textLength="61" clip-path="url(#terminal-2024413555-line-37)">&#160;esc&#160;</text><text class="terminal-2024413555-r10" x="963.8" y="922.8" textLength="61" clip-path="url(#terminal-2024413555-line-37)">停止&#160;Le</text><text class="terminal-2024413555-r15" x="1049.2" y="922.8" textLength="12.2" clip-path="url(#terminal-2024413555-line-37)">▏</text><text class="terminal-2024413555-r13" x="1061.4" y="922.8" textLength="24.4" clip-path="url(#terminal-2024413555-line-37)">^p</text><text class="terminal-2024413555-r10" x="1110.2" y="922.8" textLength="61" clip-path="url(#terminal-2024413555-line-37)">&#160;停/继续</text>
    </g>
    </g>
</svg>
